<svg xmlns="http://www.w3.org/2000/svg" width="256" height="256" viewBox="0 0 256 256">
  <!-- Blue rounded background -->
  <rect width="256" height="256" rx="48" fill="#0052CC"/>
  
  <!-- White board container -->
  <rect x="32" y="48" width="192" height="160" rx="16" fill="#ffffff"/>
  
  <!-- Three columns -->
  <rect x="48" y="64" width="48" height="128" rx="8" fill="#DFE1E6"/>
  <rect x="104" y="64" width="48" height="128" rx="8" fill="#DFE1E6"/>
  <rect x="160" y="64" width="48" height="128" rx="8" fill="#DFE1E6"/>
  
  <!-- Cards in columns -->
  <rect x="52" y="72" width="40" height="24" rx="4" fill="#ffffff" stroke="#C1C7D0" stroke-width="1"/>
  <rect x="52" y="104" width="40" height="24" rx="4" fill="#ffffff" stroke="#C1C7D0" stroke-width="1"/>
  <rect x="52" y="136" width="40" height="24" rx="4" fill="#ffffff" stroke="#C1C7D0" stroke-width="1"/>
  
  <rect x="108" y="72" width="40" height="24" rx="4" fill="#ffffff" stroke="#C1C7D0" stroke-width="1"/>
  <rect x="108" y="104" width="40" height="24" rx="4" fill="#ffffff" stroke="#C1C7D0" stroke-width="1"/>
  
  <rect x="164" y="72" width="40" height="24" rx="4" fill="#ffffff" stroke="#C1C7D0" stroke-width="1"/>
  
  <!-- Import arrow circle -->
  <circle cx="192" cy="192" r="40" fill="#ffffff"/>
  
  <!-- Arrow pointing up -->
  <path d="M192 172 L208 188 L200 188 L200 212 L184 212 L184 188 L176 188 Z" fill="#0052CC"/>
</svg>
